HIERARCHY
ROOT Hips
{
	OFFSET 0.00000 0.00000 0.00000
	CHANNELS 6 Xposition Yposition Zposition Zrotation Yrotation Xrotation 
	JOINT LHipJoint
	{
		OFFSET 0 0 0
		CHANNELS 3 Zrotation Yrotation Xrotation
		JOINT LeftUpLeg
		{
			OFFSET 1.85742 -1.74412 1.01653
			CHANNELS 3 Zrotation Yrotation Xrotation
			JOINT LeftLeg
			{
				OFFSET 2.54803 -7.00067 0.00000
				CHANNELS 3 Zrotation Yrotation Xrotation
				JOINT LeftFoot
				{
					OFFSET 2.51202 -6.90173 0.00000
					CHANNELS 3 Zrotation Yrotation Xrotation
					JOINT LeftToeBase
					{
						OFFSET 0.17547 -0.48209 1.64281
						CHANNELS 3 Zrotation Yrotation Xrotation
						End Site
						{
							OFFSET 0.00000 -0.00000 0.86587
						}
					}
				}
			}
		}
	}
	JOINT RHipJoint
	{
		OFFSET 0 0 0
		CHANNELS 3 Zrotation Yrotation Xrotation
		JOINT RightUpLeg
		{
			OFFSET -1.95533 -1.74413 1.01654
			CHANNELS 3 Zrotation Yrotation Xrotation
			JOINT RightLeg
			{
				OFFSET -2.49465 -6.85400 0.00000
				CHANNELS 3 Zrotation Yrotation Xrotation
				JOINT RightFoot
				{
					OFFSET -2.54783 -7.00010 0.00000
					CHANNELS 3 Zrotation Yrotation Xrotation
					JOINT RightToeBase
					{
						OFFSET -0.18513 -0.50864 1.69288
						CHANNELS 3 Zrotation Yrotation Xrotation
						End Site
						{
							OFFSET -0.00000 -0.00000 0.89242
						}
					}
				}
			}
		}
	}
	JOINT LowerBack
	{
		OFFSET 0 0 0
		CHANNELS 3 Zrotation Yrotation Xrotation
		JOINT Spine
		{
			OFFSET 0.02173 2.16290 -0.15998
			CHANNELS 3 Zrotation Yrotation Xrotation
			JOINT Spine1
			{
				OFFSET 0.00940 2.17323 -0.00467
				CHANNELS 3 Zrotation Yrotation Xrotation
				JOINT Neck
				{
					OFFSET 0 0 0
					CHANNELS 3 Zrotation Yrotation Xrotation
					JOINT Neck1
					{
						OFFSET 0.01475 1.85823 0.31113
						CHANNELS 3 Zrotation Yrotation Xrotation
						JOINT Head
						{
							OFFSET 0.01902 1.88783 -0.37187
							CHANNELS 3 Zrotation Yrotation Xrotation
							End Site
							{
								OFFSET 0.00489 1.93211 -0.16169
							}
						}
					}
				}
				JOINT LeftShoulder
				{
					OFFSET 0 0 0
					CHANNELS 3 Zrotation Yrotation Xrotation
					JOINT LeftArm
					{
						OFFSET 3.34199 1.32384 -0.07862
						CHANNELS 3 Zrotation Yrotation Xrotation
						JOINT LeftForeArm
						{
							OFFSET 5.27950 -0.00000 0.00000
							CHANNELS 3 Zrotation Yrotation Xrotation
							JOINT LeftHand
							{
								OFFSET 3.53504 -0.00000 0.00000
								CHANNELS 3 Zrotation Yrotation Xrotation
								JOINT LeftFingerBase
								{
									OFFSET 0 0 0
									CHANNELS 3 Zrotation Yrotation Xrotation
									JOINT LeftHandIndex1
									{
										OFFSET 0.66795 -0.00000 0.00000
										CHANNELS 3 Zrotation Yrotation Xrotation
										End Site
										{
											OFFSET 0.53852 -0.00000 0.00000
										}
									}
								}
								JOINT LThumb
								{
									OFFSET 0 0 0
									CHANNELS 3 Zrotation Yrotation Xrotation
									End Site
									{
										OFFSET 0.54674 -0.00000 0.54674
									}
								}
							}
						}
					}
				}
				JOINT RightShoulder
				{
					OFFSET 0 0 0
					CHANNELS 3 Zrotation Yrotation Xrotation
					JOINT RightArm
					{
						OFFSET -3.16149 1.45719 -0.50507
						CHANNELS 3 Zrotation Yrotation Xrotation
						JOINT RightForeArm
						{
							OFFSET -5.25035 -0.00000 0.00000
							CHANNELS 3 Zrotation Yrotation Xrotation
							JOINT RightHand
							{
								OFFSET -3.58884 -0.00000 0.00000
								CHANNELS 3 Zrotation Yrotation Xrotation
								JOINT RightFingerBase
								{
									OFFSET 0 0 0
									CHANNELS 3 Zrotation Yrotation Xrotation
									JOINT RightHandIndex1
									{
										OFFSET -0.77924 -0.00000 0.00000
										CHANNELS 3 Zrotation Yrotation Xrotation
										End Site
										{
											OFFSET -0.62824 -0.00000 0.00000
										}
									}
								}
								JOINT RThumb
								{
									OFFSET 0 0 0
									CHANNELS 3 Zrotation Yrotation Xrotation
									End Site
									{
										OFFSET -0.63783 -0.00000 0.63783
									}
								}
							}
						}
					}
				}
			}
		}
	}
}
MOTION
Frames: 15
Frame Time: .0083333
-17.3822 17.4555 -2.258 0 0 0 0 0 0 -21 0 0 0 0 0 0 0 0 0 0 0 0 0 0 21 0 0 0 0 0 0 0 0 0 0 0 0 0 0 0 0 0 0 0 0 0 0 -16 0 0 21 0 0 11 0 0 0 -8 0 0 0 0 0 0 0 0 0 0 0 0 0 0 0 0 0 0 0 0 8 0 0 0 0 0 0 0 0 0 0 0 0 0 0 0 0 0
-17.3822 17.4555 -2.2580 -48.0917 88.8677 -43.8662 0.0000 0.0000 0.0000 -18.7175 -14.6753 -6.2004 2.0558 8.9813 25.7369 0.9406 9.6368 -24.2008 2.3961 -9.6465 -27.8394 0.0000 0.0000 0.0000 23.6080 25.0993 10.1875 -0.3831 -3.9749 11.0060 2.5318 -30.9756 -29.1651 -0.0078 0.5720 -1.5719 -1.5756 0.6072 -0.2789 0.9922 0.8364 -2.4011 1.8860 0.4714 -2.3437 0.3883 -0.1573 -24.9444 0.6296 -0.3079 28.6740 0.1574 0.1194 13.9480 -0.0000 -0.0000 0.0000 -86.3021 5.2776 28.1128 15.4407 -24.7565 -3.4084 -0.0000 0.0000 -24.9270 30.7312 50.3977 24.6101 -7.1250 0.0000 -0.0000 -44.1315 82.5915 -38.7194 -0.0000 -0.0000 0.0000 77.9076 -5.9679 33.3855 -22.4325 33.4624 -6.8228 0.0000 -0.0000 -3.9359 -18.3014 19.6823 -6.3563 7.1250 -0.0000 -0.0000 6.4702 -9.4407 5.3564
-17.4126 17.4801 -2.2325 -51.3082 88.9630 -47.0496 0.0000 0.0000 0.0000 -18.9490 -16.6479 -5.2612 1.9886 8.8423 25.3034 0.8228 11.3826 -24.7705 2.2328 -9.3351 -26.8493 0.0000 0.0000 0.0000 23.4724 24.7976 9.7509 -0.3958 -4.0396 11.1880 2.3059 -30.2428 -29.1970 -0.0010 0.2031 -0.5581 -1.5805 0.5230 -0.1471 1.0886 0.7249 -2.4332 1.9885 0.4184 -2.4474 0.3353 -0.1620 -24.8019 0.8262 -0.3616 28.5023 0.2339 0.1168 13.8457 -0.0000 -0.0000 0.0000 -86.3618 5.7142 27.7729 15.4709 -24.7980 -3.4210 -0.0000 0.0000 -24.9985 30.0087 50.4232 23.9968 -7.1250 0.0000 -0.0000 -44.8611 82.2712 -39.1315 -0.0000 -0.0000 0.0000 79.2264 -5.8826 31.6364 -22.2494 33.2578 -6.7221 0.0000 -0.0000 -1.5246 -18.7184 20.1484 -6.6571 7.1250 -0.0000 -0.0000 6.2292 -8.9047 5.2217
-17.4442 17.4930 -2.2034 -54.8131 88.9894 -50.5889 0.0000 0.0000 0.0000 -18.9967 -17.7598 -4.6558 1.9324 8.7238 24.9350 0.7258 12.3952 -24.9454 2.1420 -9.1558 -26.2839 0.0000 0.0000 0.0000 23.4198 24.4148 9.2022 -0.4266 -4.1918 11.6169 2.1280 -29.6073 -29.1267 -0.0001 0.0655 -0.1800 -1.5102 0.4784 -0.1012 1.1255 0.6643 -2.3196 1.9883 0.3844 -2.3529 0.3367 -0.0757 -24.9281 1.0044 -0.3046 28.4024 0.3149 0.1650 13.8297 -0.0000 0.0000 0.0000 -86.3504 5.9075 27.5699 15.5704 -24.9346 -3.4628 -0.0000 0.0000 -25.4673 30.4531 50.5545 24.4193 -7.1250 0.0000 -0.0000 -45.4084 82.5403 -39.8371 -0.0000 0.0000 0.0000 80.1652 -5.8138 30.5392 -22.2668 33.2773 -6.7317 0.0000 -0.0000 -0.0019 -18.9196 20.3036 -6.7826 7.1250 -0.0000 -0.0000 6.1098 -8.7172 5.1433
-17.4768 17.5028 -2.1728 -57.8325 89.0348 -53.6681 0.0000 0.0000 0.0000 -18.9807 -18.3277 -4.2455 1.8694 8.5886 24.5168 0.6658 12.9194 -24.9789 2.0430 -8.9550 -25.6548 0.0000 0.0000 0.0000 23.3986 24.1551 8.7048 -0.4644 -4.3710 12.1229 1.9800 -29.1114 -29.1763 -0.0002 -0.0851 0.2338 -1.4628 0.4319 -0.0908 1.1316 0.6001 -2.1613 1.9698 0.3475 -2.1924 0.3099 -0.0013 -24.9889 1.2659 -0.2822 28.1864 0.4261 0.2054 13.7512 0.0000 0.0000 0.0000 -86.2931 6.0112 27.3192 15.6716 -25.0733 -3.5056 -0.0000 0.0000 -25.7790 30.5693 50.7017 24.5651 -7.1250 0.0000 -0.0000 -46.3451 82.6641 -40.7863 0.0000 0.0000 0.0000 80.7447 -5.8398 30.0289 -22.3556 33.3765 -6.7804 0.0000 0.0000 1.0216 -19.1891 20.5950 -6.9794 7.1250 -0.0000 -0.0000 5.9563 -8.3786 5.0529
-17.5111 17.5131 -2.1428 -59.3654 89.0966 -55.2247 0.0000 0.0000 0.0000 -19.0049 -18.9264 -3.8353 1.8023 8.4414 24.0631 0.6486 13.3830 -25.3166 1.8315 -8.5060 -24.2617 0.0000 0.0000 0.0000 23.3504 24.0387 8.1469 -0.5144 -4.5969 12.7624 1.8213 -28.6385 -29.3834 -0.0016 -0.2603 0.7152 -1.4605 0.4159 -0.0306 1.1312 0.5766 -2.0821 1.9684 0.3340 -2.1438 0.3590 -0.0055 -24.9522 1.4106 -0.3613 28.0075 0.4587 0.1947 13.6690 0.0000 0.0000 0.0000 -86.1520 6.2672 27.3143 15.8801 -25.3578 -3.5945 -0.0000 0.0000 -26.1866 30.7919 51.0422 24.8630 -7.1250 0.0000 -0.0000 -48.6690 82.9197 -43.1177 0.0000 0.0000 0.0000 81.0300 -6.0190 29.8286 -22.3572 33.3784 -6.7813 0.0000 0.0000 1.7664 -19.5010 21.1285 -7.2746 7.1250 -0.0000 -0.0000 5.7947 -7.7821 4.9829
-17.5473 17.5232 -2.1143 -60.5545 89.2197 -56.3897 0.0000 0.0000 0.0000 -19.1023 -19.6413 -3.4160 1.7287 8.2766 23.5573 0.4939 14.3373 -25.0714 1.9914 -8.8482 -25.3216 0.0000 0.0000 0.0000 23.1797 23.8449 7.4305 -0.5720 -4.8437 13.4633 1.6743 -28.1420 -29.4688 -0.0024 -0.3158 0.8677 -1.5235 0.4079 0.0642 1.1037 0.5627 -2.0555 1.9752 0.3275 -2.1694 0.5247 0.0201 -24.8471 1.4315 -0.4024 27.7787 0.4287 0.1941 13.5512 -0.0000 -0.0000 0.0000 -85.9887 6.5297 27.2459 16.0614 -25.6038 -3.6725 -0.0000 0.0000 -26.3496 30.8981 51.2282 25.0125 -7.1250 0.0000 -0.0000 -50.0186 83.0462 -44.4641 -0.0000 -0.0000 0.0000 81.1637 -6.1798 29.7848 -22.2247 33.2301 -6.7086 0.0000 0.0000 2.3269 -19.5793 21.6213 -7.4664 7.1250 -0.0000 -0.0000 5.7814 -7.2604 5.0308
-17.5836 17.5413 -2.0873 -65.3157 89.3183 -61.1049 0.0000 0.0000 0.0000 -19.1803 -20.5571 -2.9398 1.6546 8.1063 23.0374 0.4169 15.1412 -25.3509 1.8717 -8.5935 -24.5318 0.0000 0.0000 0.0000 23.0271 23.6344 6.6674 -0.6329 -5.0903 14.1663 1.5055 -27.5703 -29.5898 -0.0054 -0.4766 1.3095 -1.5712 0.3805 0.1555 1.1153 0.5240 -2.0283 2.0142 0.3089 -2.1916 0.6968 0.0403 -24.8345 1.3238 -0.4139 27.5767 0.3528 0.1876 13.4633 0.0000 0.0000 0.0000 -85.9197 6.6870 26.9048 16.1416 -25.7123 -3.7072 -0.0000 0.0000 -26.1087 30.3408 51.0113 24.4629 -7.1250 0.0000 -0.0000 -48.6737 82.6979 -42.9399 0.0000 0.0000 0.0000 81.0793 -6.2528 29.8869 -21.9976 32.9744 -6.5846 0.0000 0.0000 2.7043 -19.6521 21.5600 -7.4761 7.1250 -0.0000 -0.0000 5.7307 -7.3132 4.9802
-17.6182 17.5608 -2.0593 -73.4907 89.2898 -69.2230 0.0000 0.0000 0.0000 -19.1509 -21.6705 -2.4218 1.5931 7.9614 22.5970 0.3345 16.0858 -25.7977 1.7709 -8.3715 -23.8484 0.0000 0.0000 0.0000 23.0123 23.4431 5.9512 -0.6879 -5.3025 14.7735 1.3803 -27.0947 -29.5971 -0.0046 -0.4368 1.2003 -1.5019 0.3931 0.2119 1.1664 0.5417 -1.9912 2.0272 0.3165 -2.1858 0.6099 0.0187 -24.8361 1.5606 -0.4895 27.4547 0.4459 0.1776 13.4146 -0.0000 0.0000 0.0000 -85.8190 6.8413 26.7986 16.2816 -25.9010 -3.7681 -0.0000 0.0000 -25.9970 30.0044 50.8492 24.1232 -7.1250 0.0000 -0.0000 -47.7229 82.4714 -41.8864 -0.0000 0.0000 0.0000 81.0351 -6.3536 29.7496 -21.6748 32.6075 -6.4097 0.0000 0.0000 3.0937 -19.7247 21.5394 -7.4990 7.1250 -0.0000 -0.0000 5.6832 -7.3237 4.9373
-17.6542 17.5726 -2.0335 -79.8391 89.3113 -75.4613 0.0000 0.0000 0.0000 -19.2292 -23.0491 -1.9087 1.5483 7.8539 22.2713 0.1996 17.3407 -26.2697 1.7741 -8.3787 -23.8705 0.0000 0.0000 0.0000 22.8308 23.0269 5.1260 -0.7320 -5.4661 15.2430 1.2852 -26.5704 -29.3031 -0.0002 -0.0911 0.2502 -1.4602 0.4380 0.2394 1.1698 0.6020 -1.9843 2.0058 0.3459 -2.1966 0.5569 -0.0444 -24.7960 1.7406 -0.6182 27.3182 0.5005 0.1398 13.3518 0.0000 -0.0000 0.0000 -85.6615 7.0229 26.9690 16.4923 -26.1836 -3.8606 -0.0000 0.0000 -26.2118 30.6124 50.9389 24.6756 -7.1250 0.0000 -0.0000 -48.0080 82.7918 -42.4073 0.0000 -0.0000 0.0000 81.0457 -6.5104 29.5150 -21.2687 32.1407 -6.1923 0.0000 0.0000 3.2908 -19.8018 21.4619 -7.5049 7.1250 -0.0000 -0.0000 5.6283 -7.3928 4.8816
-17.6928 17.5725 -2.0102 -86.0168 89.4319 -81.5437 0.0000 0.0000 0.0000 -19.4538 -24.4585 -1.4505 1.5266 7.8012 22.1118 0.0503 18.6102 -26.7487 1.7790 -8.3897 -23.9041 0.0000 0.0000 0.0000 22.5552 22.6652 4.4465 -0.7619 -5.5741 15.5537 1.2687 -26.2713 -28.8532 -0.0048 0.4459 -1.2251 -1.5490 0.4718 0.3042 1.1529 0.6445 -1.9867 2.0368 0.3689 -2.2383 0.6735 -0.0825 -24.8147 1.6506 -0.6932 27.2604 0.4310 0.1053 13.3313 0.0000 0.0000 0.0000 -85.6082 7.0948 26.8700 16.6037 -26.3323 -3.9099 -0.0000 0.0000 -26.3553 31.0369 50.8588 25.0186 -7.1250 0.0000 -0.0000 -47.1816 82.9530 -41.7808 0.0000 0.0000 0.0000 81.0288 -6.6131 29.2666 -20.6844 31.4581 -5.8844 0.0000 0.0000 3.3557 -19.5684 22.0312 -7.5949 7.1250 -0.0000 -0.0000 5.8197 -6.8379 5.1125
-17.7306 17.5735 -1.9856 -99.9468 89.5115 -95.4169 0.0000 0.0000 0.0000 -19.5946 -25.5461 -1.1662 1.5208 7.7871 22.0693 -0.1050 19.6189 -26.9142 1.8386 -8.5215 -24.3095 0.0000 0.0000 0.0000 22.4565 22.6574 4.1000 -0.7824 -5.6470 15.7634 1.2875 -26.2720 -28.7069 -0.0090 0.6124 -1.6828 -1.6037 0.4986 0.3639 1.1231 0.6772 -1.9443 2.0358 0.3851 -2.2302 0.8010 -0.0854 -24.8171 1.5578 -0.7230 27.0899 0.3659 0.0886 13.2604 0.0000 -0.0000 0.0000 -85.5509 6.9985 26.6219 16.6217 -26.3563 -3.9179 -0.0000 0.0000 -26.3605 31.2226 50.8782 25.1859 -7.1250 0.0000 -0.0000 -47.2184 83.0482 -41.8908 0.0000 -0.0000 0.0000 81.0256 -6.6353 28.9867 -19.9846 30.6238 -5.5235 0.0000 0.0000 3.3649 -19.6299 21.8480 -7.5609 7.1250 -0.0000 -0.0000 5.7667 -7.0182 5.0452
-17.7704 17.5763 -1.9622 -117.4170 89.4648 -112.7520 0.0000 0.0000 0.0000 -19.5426 -26.4324 -1.1719 1.5270 7.8022 22.1149 -0.1300 20.1419 -27.4698 1.7017 -8.2150 -23.3691 0.0000 0.0000 0.0000 22.3867 22.5554 3.6607 -0.7943 -5.6890 15.8846 1.2815 -26.1575 -28.5314 -0.0098 0.6389 -1.7556 -1.5487 0.5039 0.3699 1.1176 0.6845 -1.9146 1.9990 0.3870 -2.2025 0.7767 -0.0773 -24.8053 1.6813 -0.7438 26.8895 0.4127 0.0905 13.1763 -0.0000 -0.0000 0.0000 -85.4669 6.9153 26.5459 16.6887 -26.4456 -3.9477 -0.0000 0.0000 -26.5327 31.8330 51.2193 25.8253 -7.1250 0.0000 -0.0000 -49.5841 83.4783 -44.4208 -0.0000 -0.0000 0.0000 81.0279 -6.6389 28.5992 -19.3056 29.7966 -5.1818 0.0000 0.0000 3.6331 -19.1317 21.7546 -7.3265 7.1250 -0.0000 -0.0000 6.0744 -7.1882 5.2972
-17.8103 17.5794 -1.9411 -127.9890 89.3651 -123.1650 0.0000 0.0000 0.0000 -19.5006 -27.5486 -1.1087 1.5399 7.8336 22.2097 -0.2025 20.8962 -28.0081 1.6262 -8.0396 -22.8346 0.0000 0.0000 0.0000 22.2493 22.1258 3.0681 -0.7981 -5.7021 15.9224 1.2090 -25.6905 -28.2030 -0.0147 0.7818 -2.1486 -1.5205 0.4881 0.3985 1.1719 0.6650 -1.9166 2.0392 0.3776 -2.2201 0.7369 -0.0770 -24.8490 1.7273 -0.7446 26.8239 0.4366 0.0910 13.1585 -0.0000 -0.0000 0.0000 -85.4886 6.8899 26.3504 16.7646 -26.5465 -3.9816 -0.0000 0.0000 -26.6978 31.9383 51.2791 25.9363 -7.1250 0.0000 -0.0000 -50.0368 83.5514 -44.9009 -0.0000 -0.0000 0.0000 81.0068 -6.5979 27.9460 -18.5418 28.8453 -4.8078 0.0000 0.0000 4.3586 -18.8032 21.2437 -7.0331 7.1250 -0.0000 -0.0000 6.2464 -7.7625 5.3784
-17.8479 17.5791 -1.9199 -137.1410 89.2081 -132.2520 0.0000 0.0000 0.0000 -19.5417 -28.8437 -0.8203 1.5576 7.8764 22.3392 -0.2300 21.5812 -28.8126 1.4400 -7.5866 -21.4654 0.0000 0.0000 0.0000 22.2177 21.7988 2.7137 -0.7939 -5.6874 15.8801 1.1739 -25.4058 -27.9375 -0.0195 0.9024 -2.4804 -1.5214 0.4575 0.4926 1.2448 0.6241 -1.8835 2.1151 0.3577 -2.2381 0.8014 -0.0721 -24.9119 1.5955 -0.7254 26.7610 0.3770 0.0851 13.1440 -0.0000 -0.0000 0.0000 -85.6029 6.7635 25.7745 16.7506 -26.5278 -3.9753 -0.0000 0.0000 -26.4238 31.3110 51.1093 25.3351 -7.1250 0.0000 -0.0000 -48.9292 83.1893 -43.5781 -0.0000 -0.0000 0.0000 81.0009 -6.5221 27.0941 -17.6955 27.7655 -4.4065 0.0000 0.0000 5.1447 -18.5793 21.3074 -6.9638 7.1250 -0.0000 -0.0000 6.3929 -7.7282 5.5105
